# xmcd
#
# Track frame offsets:
#  170
#  16841
#  34132
#  47271
#  64550
#  84320
#  103970
#  127060
#  152270
#  172725
#  198428
#  238800
#  261705
#
# Disc length: 3711 seconds
#
# Revision: 0
# Processed by: cddbd v1.4PL0 Copyright (c) Steve Scherf et al.
# Submitted via: AltoMP3_Maker 3.0
#
DISCID=a30e7d0d
DTITLE=Tønsberg Bluesband - Hop, Skip and Jump
DYEAR=1900
DGENRE=
TTITLE0=Ding Dong Daddy
TTITLE1=Rock This House
TTITLE2=You've Got The Hooks In Me
TTITLE3=Harpburn
TTITLE4=Pawnshop Bound
TTITLE5=Flamenco Dancer
TTITLE6=Prettiest Little Thing
TTITLE7=I've Got My Eyes On You
TTITLE8=Shinin' Star
TTITLE9=Easter Bunny Boogie
TTITLE10=Pearl
TTITLE11=Never Trust A Woman
TTITLE12=Hop, Skip and Jump
EXTD=
EXTT0=
EXTT1=
EXTT2=
EXTT3=
EXTT4=
EXTT5=
EXTT6=
EXTT7=
EXTT8=
EXTT9=
EXTT10=
EXTT11=
EXTT12=
PLAYORDER=
